#!OML:ASF H:\Terrain\Patient Classification 1\Animal1\Tuesday\Animal1.ASF
:FULLY-SPECIFIED
:DEGREES
1581
root 5.47277 16.7194 3.44456 11.0653 -1.91143 -359.73
lowerback -8.39742 -0.834721 -0.762502
upperback -7.6175 -1.07934 -0.0566924
thorax -3.18366 -0.513799 0.309995
lowerneck -0.475712 -0.661458 -7.76461
upperneck 6.92301 -1.763 16.8736
head 2.29135 -0.637332 6.41924
rclavicle -7.42336e-015 -1.58531e-014
rhumerus -40.2456 5.79517 -89.3152
rradius 25.3576
rwrist -4.86239
rhand -14.4686 24.2842
rfingers 7.12502
rthumb 11.6772 -5.37041
lclavicle -7.42336e-015 -1.58531e-014
lhumerus -43.5174 10.587 79.2125
lradius 24.6013
lwrist -33.1587
lhand 1.07918 39.8456
lfingers 7.12502
lthumb -153.376 -112.006
rfemur -23.4278 42.8066 12.3946
rtibia 23.8891
rfoot -31.54 -44.0085
rtoes 36.8967
lfemur -11.8004 -47.9813 -11.1062
ltibia 14.6644
lfoot -58.1925 39.6181
ltoes 49.9617
1582
root 5.46179 16.7221 3.44067 11.1119 -1.93702 -359.801
lowerback -8.39546 -0.802308 -0.640375
upperback -7.59984 -1.04378 -0.111893
thorax -3.16946 -0.502862 0.186386
lowerneck -0.410781 -0.817376 -7.82406
upperneck 6.90847 -1.98832 17.0459
head 2.30646 -0.749694 6.47997
rclavicle 6.34869e-015 1.16289e-014
rhumerus -40.1139 5.12537 -89.162
rradius 25.1668
rwrist -4.31832
rhand -14.0951 24.0075
rfingers 7.12502
rthumb 12.0374 -5.62628
lclavicle 6.34869e-015 1.16289e-014
lhumerus -43.3354 10.3905 79.1711
lradius 24.4727
lwrist -33.5668
lhand 1.12894 39.8523
lfingers 7.12502
lthumb -153.329 -112.007
rfemur -23.5621 42.9794 12.3851
rtibia 23.8687
rfoot -32.1237 -43.8126
rtoes 37.0337
lfemur -11.8387 -47.9965 -10.8972
ltibia 14.6575
lfoot -58.0021 39.919
ltoes 49.6344
1583
root 5.45077 16.7259 3.44743 11.1012 -1.93867 -359.757
lowerback -8.51104 -0.815564 -0.704817
upperback -7.53555 -1.05667 -0.135432
thorax -3.03738 -0.507677 0.195092
lowerneck -0.16328 -1.02751 -7.68392
upperneck 6.75355 -2.26193 16.9036
head 2.25286 -0.901502 6.40242
rclavicle -1.87603e-015 7.15625e-015
rhumerus -39.9246 4.94575 -89.2082
rradius 24.8624
rwrist -4.209
rhand -13.3996 23.2295
rfingers 7.12502
rthumb 12.708 -6.3638
lclavicle -1.87603e-015 7.15625e-015
lhumerus -43.1657 10.5212 79.0368
lradius 24.3296
lwrist -34.3259
lhand 1.23948 39.9483
lfingers 7.12502
lthumb -153.223 -111.927
rfemur -23.4663 43.123 12.404
rtibia 23.8076
rfoot -32.8265 -43.8407
rtoes 37.5181
lfemur -11.7672 -48.2602 -10.9306
ltibia 14.7297
lfoot -58.3211 40.1501
ltoes 49.3807
1584
root 5.43849 16.7216 3.44802 11.0575 -1.96113 -359.719
lowerback -8.48727 -0.82921 -0.838728
upperback -7.49897 -1.06701 -0.115721
thorax -3.00924 -0.506776 0.289866
lowerneck 0.0446107 -1.27458 -7.58261
upperneck 6.69504 -2.59159 16.7022
head 2.24021 -1.0785 6.31266
rclavicle -1.34428e-014 -6.95746e-016
rhumerus -39.8851 5.21004 -89.4246
rradius 24.8154
rwrist -4.64783
rhand -13.4125 23.2896
rfingers 7.12502
rthumb 12.6955 -6.30447
lclavicle -1.34428e-014 -6.95746e-016
lhumerus -43.0624 10.5191 79.0951
lradius 24.3647
lwrist -34.5144
lhand 1.21115 39.9988
lfingers 7.12502
lthumb -153.25 -111.872
rfemur -23.3174 43.041 12.5008
rtibia 23.7121
rfoot -32.9596 -43.559
rtoes 38.7466
lfemur -11.7957 -48.0368 -11.0255
ltibia 14.8923
lfoot -57.7426 40.6697
ltoes 48.8605
1585
root 5.42579 16.7172 3.44386 11.0075 -1.99039 -359.917
lowerback -8.36455 -0.805604 -0.74871
upperback -7.47936 -1.04019 -0.0207307
thorax -3.05599 -0.494515 0.340807
lowerneck 0.104708 -1.46326 -7.68962
upperneck 6.74396 -2.85965 16.7355
head 2.27986 -1.21447 6.3363
rclavicle 4.4975e-015 7.35503e-015
rhumerus -39.873 5.33964 -89.4926
rradius 24.756
rwrist -4.77319
rhand -13.7256 23.8197
rfingers 7.12502
rthumb 12.3936 -5.79287
lclavicle 4.4975e-015 7.35503e-015
lhumerus -43.0138 10.0938 79.4272
lradius 24.511
lwrist -34.0478
lhand 0.802193 39.9746
lfingers 7.12502
lthumb -153.641 -111.837
rfemur -23.2005 42.8958 12.8544
rtibia 23.6217
rfoot -32.8082 -43.2059
rtoes 39.4598
lfemur -11.8174 -47.4705 -10.8966
ltibia 15.0427
lfoot -56.8853 41.0066
ltoes 48.3227
1586
root 5.41689 16.7188 3.44322 10.9262 -1.94173 -360.034
lowerback -8.25452 -0.807525 -0.676056
upperback -7.43953 -1.04611 0.0485359
thorax -3.07438 -0.498706 0.372645
lowerneck 0.0620999 -1.6398 -7.89968
upperneck 6.8466 -3.11831 16.8653
head 2.3543 -1.33982 6.40856
rclavicle -9.7653e-015 -1.48095e-014
rhumerus -39.8542 5.4816 -89.5694
rradius 24.6559
rwrist -4.92261
rhand -13.9228 23.6573
rfingers 7.12502
rthumb 12.2036 -5.96674
lclavicle -9.7653e-015 -1.48095e-014
lhumerus -42.9848 9.54337 79.8592
lradius 24.7267
lwrist -33.4291
lhand 0.0498293 40.0194
lfingers 7.12502
lthumb -154.362 -111.687
rfemur -23.0315 43.0759 13.0707
rtibia 23.492
rfoot -32.3082 -43.884
rtoes 38.0282
lfemur -11.7891 -47.1295 -10.8617
ltibia 15.2369
lfoot -56.6242 40.7648
ltoes 48.2776
1587
root 5.40955 16.7218 3.44066 10.9367 -1.83117 -360.058
lowerback -8.2147 -0.847493 -0.658182
upperback -7.42633 -1.09947 0.0970146
thorax -3.08118 -0.524916 0.41032
lowerneck 0.00216048 -1.88997 -8.13341
upperneck 6.98435 -3.47588 16.9098
head 2.45523 -1.51511 6.45433
rclavicle -2.70223e-015 4.72114e-015
rhumerus -39.8849 5.6633 -89.6537
rradius 24.6822
rwrist -5.18399
rhand -13.8779 23.0454
rfingers 7.12502
rthumb 12.2468 -6.576
lclavicle -2.70223e-015 4.72114e-015
lhumerus -42.9076 9.31768 80.1284
lradius 24.8739
lwrist -33.182
lhand -0.329024 40.2569
lfingers 7.12502
lthumb -154.725 -111.397
rfemur -22.9828 43.4002 13.0408
rtibia 23.3011
rfoot -32.1608 -44.4556
rtoes 37.1333
lfemur -12.0302 -46.9772 -10.7181
ltibia 15.5249
lfoot -56.5389 40.3406
ltoes 48.6519
1588
root 5.40587 16.7235 3.44412 10.965 -1.71655 -360.228
lowerback -8.31786 -0.886514 -0.419848
upperback -7.37813 -1.16194 0.168697
thorax -2.9758 -0.564939 0.345349
lowerneck -0.000509235 -2.14825 -8.3511
upperneck 7.09511 -3.84192 16.9212
head 2.54 -1.69858 6.4858
rclavicle 1.83689e-014 -7.60351e-015
rhumerus -39.9465 5.64218 -89.6061
rradius 24.7354
rwrist -5.09321
rhand -13.5459 22.7326
rfingers 7.12502
rthumb 12.5669 -6.8694
lclavicle 1.83689e-014 -7.60351e-015
lhumerus -42.743 9.26355 80.2604
lradius 24.8836
lwrist -33.2203
lhand -0.164451 40.4612
lfingers 7.12502
lthumb -154.567 -111.215
rfemur -22.8593 43.2797 13.2836
rtibia 23.1427
rfoot -32.4096 -44.1078
rtoes 37.8172
lfemur -12.168 -47.2749 -10.4313
ltibia 15.7555
lfoot -57.0484 39.9634
ltoes 48.9183
1589
root 5.40409 16.7252 3.44975 10.9352 -1.64381 -360.319
lowerback -8.42262 -0.919931 -0.243314
upperback -7.2759 -1.21481 0.204512
thorax -2.81288 -0.59835 0.277559
lowerneck -0.0589385 -2.40798 -8.39282
upperneck 7.21118 -4.20182 16.7965
head 2.63047 -1.87527 6.44114
rclavicle -1.74247e-014 -4.47266e-015
rhumerus -40.0236 5.83654 -89.6949
rradius 24.7449
rwrist -5.02685
rhand -13.9199 23.2906
rfingers 7.12502
rthumb 12.2063 -6.33328
lclavicle -1.74247e-014 -4.47266e-015
lhumerus -42.5337 8.94079 80.569
lradius 25.0024
lwrist -32.8957
lhand -0.641271 40.302
lfingers 7.12502
lthumb -155.024 -111.31
rfemur -22.6733 43.1536 13.4859
rtibia 23.0002
rfoot -32.1225 -44.2396
rtoes 37.7282
lfemur -12.1217 -47.3666 -10.4105
ltibia 15.9509
lfoot -57.0148 40.2039
ltoes 48.3902
